Coordinates
version=1
nRows=17
nColumns=24
inDegrees=yes

Units are S.I. units (second, meters, Newtons, ...)
Angles are in degrees.

endheader
time	pelvis_tilt	pelvis_list	pelvis_rotation	pelvis_tx	pelvis_ty	pelvis_tz	hip_flexion_r	hip_adduction_r	hip_rotation_r	knee_angle_r	ankle_angle_r	subtalar_angle_r	mtp_angle_r	hip_flexion_l	hip_adduction_l	hip_rotation_l	knee_angle_l	ankle_angle_l	subtalar_angle_l	mtp_angle_l	lumbar_extension	lumbar_bending	lumbar_rotation
      1.73500000	     -8.50072488	      0.94313520	      1.83827272	     -0.20930395	      1.23548657	     -0.86247319	     33.99727395	      3.10572640	      0.60388281	    -33.19959583	      8.36906001	     -7.18703492	      7.08622758	     12.46886116	     10.49084705	     14.05663828	    -19.90288889	      6.57061205	     -4.87806742	      7.74910666	     -4.12038342	     -2.92360193	     -2.74169590
      1.74000000	     -8.53189604	      0.90354620	      1.82631201	     -0.20361612	      1.23511212	     -0.86208960	     33.84598172	      3.14388691	      0.92721217	    -30.68810302	      8.30140600	     -7.60866018	      6.78922631	     12.10644354	     10.41425934	     13.95977296	    -20.01241692	      7.02789115	     -4.68097250	      7.77679615	     -4.10525615	     -2.87138704	     -2.78294820
      1.74500000	     -8.56295577	      0.86874019	      1.89598424	     -0.19788108	      1.23469061	     -0.86185130	     33.62719446	      3.08540800	      1.07809641	    -28.11315343	      8.22378440	     -7.79488684	      6.61939100	     11.73171665	     10.37729342	     14.00678897	    -20.11088162	      7.40577442	     -4.58639577	      7.82157678	     -4.08144988	     -2.81506905	     -2.92381768
      1.75000000	     -8.59622435	      0.86061138	      1.96430942	     -0.19213783	      1.23417042	     -0.86156301	     33.37499026	      2.99884943	      1.22917799	    -25.52817982	      8.06983245	     -7.96544651	      6.47934494	     11.38414667	     10.36547052	     14.00164453	    -20.25767918	      7.81090183	     -4.45515330	      7.88237850	     -4.05483311	     -2.80055646	     -3.01338610
      1.75500000	     -8.64917955	      0.87750292	      2.04630635	     -0.18636121	      1.23355068	     -0.86127270	     33.12686341	      2.86786059	      1.32052160	    -22.99022148	      7.90303624	     -8.03230946	      6.37910134	     11.06962526	     10.38491438	     13.98224426	    -20.43005579	      8.21782621	     -4.30803365	      7.94928020	     -4.00108030	     -2.81413496	     -3.09256761
      1.76000000	     -8.72131613	      0.91039200	      2.13997587	     -0.18054978	      1.23285421	     -0.86097345	     32.89110202	      2.70620160	      1.33545411	    -20.53044842	      7.74643486	     -7.96857670	      6.30979916	     10.78301775	     10.42278242	     13.95016598	    -20.61938856	      8.61859510	     -4.14994844	      8.01965634	     -3.91791257	     -2.84870641	     -3.16046390
      1.76500000	     -8.79650786	      0.94733817	      2.24091793	     -0.17469496	      1.23212206	     -0.86067136	     32.64607233	      2.53314724	      1.27060486	    -18.15575947	      7.60116688	     -7.78510141	      6.26779595	     10.50385623	     10.46262843	     13.89656259	    -20.82009484	      9.02628004	     -3.95897008	      8.09935828	     -3.82350040	     -2.88505026	     -3.22272733
      1.77000000	     -8.87953074	      0.98384984	      2.35350074	     -0.16880924	      1.23135694	     -0.86035539	     32.39938553	      2.35777191	      1.12754622	    -15.87731252	      7.47009212	     -7.47133163	      6.25512596	     10.24502661	     10.50097866	     13.83316104	    -21.04637565	      9.43487340	     -3.73543112	      8.18596907	     -3.71542253	     -2.92803898	     -3.27447521
      1.77500000	     -8.96326223	      1.01782683	      2.47729937	     -0.16289938	      1.23056909	     -0.86003527	     32.14843451	      2.18491689	      0.90347087	    -13.71049128	      7.34045216	     -7.02700399	      6.27791760	     10.00320485	     10.53663333	     13.75750055	    -21.30598815	      9.84675906	     -3.48038795	      8.28631453	     -3.60293607	     -2.96738913	     -3.31989330
      1.78000000	     -9.04619221	      1.05077739	      2.60467676	     -0.15693065	      1.22976233	     -0.85971194	     31.89600445	      2.01991630	      0.60268518	    -11.67602087	      7.22254818	     -6.44041066	      6.34735505	      9.77111953	     10.56795314	     13.65491731	    -21.59431500	     10.27220513	     -3.17462450	      8.39670822	     -3.47466195	     -2.99936984	     -3.36006490
      1.78500000	     -9.13460202	      1.09092564	      2.72035378	     -0.15096109	      1.22891915	     -0.85931707	     31.67483483	      1.87021424	      0.25676304	     -9.81819762	      7.14567804	     -5.66103487	      6.50231159	      9.57472271	     10.59391671	     13.48535710	    -21.93291369	     10.73305046	     -2.77101595	      8.50395635	     -3.34752454	     -3.04915035	     -3.37072251
      1.79000000	     -9.24009834	      1.10553670	      2.88462921	     -0.14496238	      1.22807423	     -0.85899407	     31.46151012	      1.73520471	     -0.19667714	     -8.09470052	      6.98515685	     -4.95362840	      6.61330730	      9.41321634	     10.61362380	     13.41640076	    -22.30772183	     11.10269617	     -2.47527120	      8.64583057	     -3.19367710	     -3.06342680	     -3.40206216
      1.79500000	     -9.33669247	      1.12595265	      3.02719912	     -0.13892636	      1.22722218	     -0.85861385	     31.26580243	      1.62284372	     -0.67288161	     -6.57353086	      6.87240337	     -4.06328141	      6.79615098	      9.26756515	     10.62322602	     13.26503895	    -22.72891041	     11.50968599	     -2.06841744	      8.83496353	     -3.04181368	     -3.08234063	     -3.40869969
      1.80000000	     -9.45266192	      1.14268888	      3.16880726	     -0.13288048	      1.22635821	     -0.85820391	     31.11775427	      1.53299281	     -1.16578210	     -5.25759415	      6.73731642	     -3.15613217	      7.00350973	      9.17866072	     10.62799004	     13.09874560	    -23.21348877	     11.89135772	     -1.65044292	      9.04240961	     -2.86381851	     -3.09502777	     -3.40109186
      1.80500000	     -9.56662126	      1.17305033	      3.27762818	     -0.12682906	      1.22547726	     -0.85771867	     31.01209514	      1.46156643	     -1.62824797	     -4.18105049	      6.66703366	     -2.12171602	      7.27676009	      9.11519696	     10.62823655	     12.84846222	    -23.74061789	     12.29315806	     -1.13165583	      9.26867199	     -2.69441632	     -3.11852863	     -3.38550518
      1.81000000	     -9.69341325	      1.16228250	      3.43829944	     -0.12076703	      1.22463284	     -0.85731562	     30.91120389	      1.41864908	     -2.14123633	     -3.26229287	      6.44423149	     -1.34683425	      7.45620738	      9.11753567	     10.60929180	     12.69964242	    -24.36432043	     12.61137238	     -0.70144445	      9.55334278	     -2.49807701	     -3.09057258	     -3.37851538
      1.81500000	     -9.81611994	      1.15839522	      3.56113054	     -0.11471855	      1.22378652	     -0.85685686	     30.84855807	      1.39809598	     -2.61116892	     -2.57076134	      6.23542597	     -0.51231161	      7.66165958	      9.16096823	     10.57994888	     12.45390895	    -25.05465867	     12.93371740	     -0.17360017	      9.91942426	     -2.32029338	     -3.05783531	     -3.34485002
